<!DOCTYPE svg PUBLIC "-//W3C//DTD SVG 20010904//EN" "http://www.w3.org/TR/2001/REC-SVG-20010904/DTD/svg10.dtd">
<svg version="1.0" xmlns="http://www.w3.org/2000/svg" width="1042px" height="1092px" viewBox="0 0 10420 10920" preserveAspectRatio="xMidYMid meet">
<g id="layer101" fill="#0f77d8" stroke="none">
 <path d="M2830 7740 c-10 -6 -2 -28 33 -91 25 -46 109 -241 187 -434 78 -192 145 -352 149 -355 16 -11 1745 -4330 1769 -4417 24 -88 26 -93 52 -93 25 0 36 19 199 363 95 199 256 530 357 735 101 205 184 377 184 382 0 6 -428 580 -951 1278 l-950 1267 55 3 c91 5 1836 -67 1906 -79 36 -6 87 -9 115 -7 48 3 5 24 -1495 711 -850 390 -1557 717 -1571 727 -15 11 -31 15 -39 10z"/>
 <path d="M7085 7341 c-181 -185 -559 -568 -840 -851 -700 -705 -1225 -1246 -1225 -1262 1 -22 855 -1168 871 -1168 5 0 9 7 9 16 0 18 1507 3564 1521 3579 11 11 12 26 2 24 -5 -1 -156 -153 -338 -338z"/>
 </g>
<g id="layer102" fill="#38a4e1" stroke="none">
 <path d="M2840 7742 c0 -14 351 -876 359 -882 16 -11 1745 -4329 1769 -4417 24 -88 26 -93 52 -93 25 0 36 19 203 368 97 202 177 373 177 381 0 23 -1223 2223 -1229 2212 -4 -5 -25 25 -48 67 -35 65 -60 147 -163 536 -66 252 -120 461 -118 465 2 4 419 -10 928 -31 509 -21 963 -36 1010 -35 81 2 25 14 -1155 261 -682 142 -1253 265 -1270 273 -25 12 -66 81 -269 458 -131 245 -240 445 -242 445 -2 0 -4 -4 -4 -8z"/>
 <path d="M6685 6527 c-537 -822 -701 -1066 -703 -1047 -6 40 49 774 59 793 5 9 7 17 5 17 -11 0 -1026 -1051 -1026 -1062 1 -20 855 -1168 869 -1168 4 0 12 17 18 38 5 20 342 815 747 1766 405 951 735 1731 733 1732 -1 1 -317 -480 -702 -1069z"/>
 </g>
<g id="layer103" fill="#6dc2e7" stroke="none">
 <path d="M3210 6853 c0 -13 1703 -4244 1706 -4240 2 2 -163 599 -366 1328 -343 1230 -372 1331 -418 1419 -27 52 -53 106 -57 120 -4 14 -174 324 -378 689 -227 407 -366 666 -359 669 7 2 10 8 6 13 -6 11 -134 12 -134 2z"/>
 <path d="M5703 5053 c-139 -215 -253 -396 -253 -402 0 -7 96 -140 213 -297 183 -247 212 -282 214 -257 13 146 83 1301 81 1321 -2 20 -56 -56 -255 -365z"/>
 </g>

</svg>